<mxfile host="65bd71144e" pages="14">
    <diagram id="6G4jgjc1L-d-z2NsBj1B" name="Cartographie_Processus">
        <mxGraphModel dx="1833" dy="583" grid="1" gridSize="10" guides="1" tooltips="1" connect="1" arrows="1" fold="1" page="1" pageScale="1" pageWidth="827" pageHeight="1169" math="0" shadow="0">
            <root>
                <mxCell id="0"/>
                <mxCell id="1" parent="0"/>
                <mxCell id="jFcU2J2NHimVdBmzldyy-9" value="" style="html=1;shadow=0;dashed=0;align=center;verticalAlign=middle;shape=mxgraph.arrows2.arrow;dy=0;dx=46;notch=0;fillColor=none;" parent="1" vertex="1">
                    <mxGeometry x="39" y="243" width="750" height="210" as="geometry"/>
                </mxCell>
                <mxCell id="YPXC7XD4_t91ROOwD9L7-1" value="SERVICE" style="rounded=1;whiteSpace=wrap;html=1;fontSize=15;fontStyle=1" parent="1" vertex="1">
                    <mxGeometry x="50" y="253" width="200" height="40" as="geometry"/>
                </mxCell>
                <UserObject label="&lt;b&gt;R1 : Réaliser des prestations de service selon un catalogue&lt;/b&gt;" link="data:page/id,NEyfuUejbYBWQiLV6J_5" id="YPXC7XD4_t91ROOwD9L7-2">
                    <mxCell style="rounded=0;whiteSpace=wrap;html=1;fontSize=12;" parent="1" vertex="1">
                        <mxGeometry x="50" y="293" width="100" height="140" as="geometry"/>
                    </mxCell>
                </UserObject>
                <mxCell id="YPXC7XD4_t91ROOwD9L7-3" value="&lt;b&gt;R2 : Mettre à disposition : &lt;/b&gt;Instruments et/ou personnels techniques" style="rounded=0;whiteSpace=wrap;html=1;fontSize=12;align=center;" parent="1" vertex="1">
                    <mxGeometry x="150" y="293" width="100" height="140" as="geometry"/>
                </mxCell>
                <mxCell id="jFcU2J2NHimVdBmzldyy-1" value="R&amp;amp;D" style="rounded=1;whiteSpace=wrap;html=1;fontSize=15;fontStyle=1" parent="1" vertex="1">
                    <mxGeometry x="261" y="253" width="150" height="40" as="geometry"/>
                </mxCell>
                <mxCell id="jFcU2J2NHimVdBmzldyy-2" value="&lt;div style=&quot;text-align: center;&quot;&gt;&lt;span style=&quot;background-color: transparent; color: light-dark(rgb(0, 0, 0), rgb(255, 255, 255));&quot;&gt;&lt;b&gt;R3 : Développer&lt;/b&gt;&lt;/span&gt;&lt;/div&gt;&lt;div style=&quot;text-align: center;&quot;&gt;- Nouvelles technologies&lt;/div&gt;&lt;div&gt;- Nouveaux outils&amp;nbsp;&lt;/div&gt;&lt;div&gt;- Nouveaux logiciels&lt;/div&gt;" style="rounded=0;whiteSpace=wrap;html=1;fontSize=12;align=left;" parent="1" vertex="1">
                    <mxGeometry x="261" y="293" width="150" height="140" as="geometry"/>
                </mxCell>
                <mxCell id="jFcU2J2NHimVdBmzldyy-4" value="Formation" style="rounded=1;whiteSpace=wrap;html=1;fontStyle=1;fontSize=15;" parent="1" vertex="1">
                    <mxGeometry x="421" y="253" width="150" height="40" as="geometry"/>
                </mxCell>
                <mxCell id="jFcU2J2NHimVdBmzldyy-5" value="&lt;div style=&quot;text-align: center;&quot;&gt;&lt;span style=&quot;background-color: transparent; color: light-dark(rgb(0, 0, 0), rgb(255, 255, 255));&quot;&gt;&lt;b&gt;R4 : Former&lt;/b&gt;&lt;/span&gt;&lt;/div&gt;&lt;div style=&quot;&quot;&gt;-&lt;span style=&quot;background-color: transparent;&quot;&gt;Formations dans les domaines d&#39;expertises&lt;/span&gt;&lt;/div&gt;&lt;div style=&quot;&quot;&gt;&lt;span style=&quot;background-color: transparent;&quot;&gt;- Formation sur les équipements&lt;/span&gt;&lt;/div&gt;&lt;div style=&quot;&quot;&gt;&lt;span style=&quot;background-color: transparent;&quot;&gt;- Intervenir dans des formations au titre de la plateforme&lt;/span&gt;&lt;br&gt;&lt;/div&gt;" style="rounded=0;whiteSpace=wrap;html=1;fontSize=12;align=left;" parent="1" vertex="1">
                    <mxGeometry x="421" y="293" width="150" height="140" as="geometry"/>
                </mxCell>
                <mxCell id="jFcU2J2NHimVdBmzldyy-7" value="Valorisation" style="rounded=1;whiteSpace=wrap;html=1;fontStyle=1;fontSize=15;" parent="1" vertex="1">
                    <mxGeometry x="580" y="253" width="150" height="40" as="geometry"/>
                </mxCell>
                <mxCell id="jFcU2J2NHimVdBmzldyy-8" value="&lt;div style=&quot;text-align: center;&quot;&gt;&lt;span style=&quot;background-color: transparent; color: light-dark(rgb(0, 0, 0), rgb(255, 255, 255));&quot;&gt;&lt;b&gt;R5 : Valoriser&lt;/b&gt;&lt;/span&gt;&lt;/div&gt;&lt;div style=&quot;&quot;&gt;&lt;span style=&quot;background-color: transparent; color: light-dark(rgb(0, 0, 0), rgb(255, 255, 255));&quot;&gt;-&amp;nbsp;&lt;/span&gt;&lt;span style=&quot;background-color: transparent; color: light-dark(rgb(0, 0, 0), rgb(255, 255, 255));&quot;&gt;Participer à des publications&lt;/span&gt;&lt;br&gt;&lt;span style=&quot;background-color: transparent; color: light-dark(rgb(0, 0, 0), rgb(255, 255, 255));&quot;&gt;- Organiser ou co-organiser des manifestations scientifiques&lt;/span&gt;&lt;br&gt;&lt;/div&gt;&lt;div style=&quot;&quot;&gt;- PI, brevet et valoriser les développements&lt;/div&gt;" style="rounded=0;whiteSpace=wrap;html=1;fontSize=12;align=left;" parent="1" vertex="1">
                    <mxGeometry x="580" y="293" width="150" height="140" as="geometry"/>
                </mxCell>
                <mxCell id="jFcU2J2NHimVdBmzldyy-10" value="&lt;b&gt;S1 : Gestion des ressources humaines&amp;nbsp;&lt;/b&gt;&lt;div&gt;(compétences et formations)&lt;/div&gt;" style="rounded=0;whiteSpace=wrap;html=1;fontSize=12;" parent="1" vertex="1">
                    <mxGeometry x="50" y="485" width="150" height="100" as="geometry"/>
                </mxCell>
                <mxCell id="jFcU2J2NHimVdBmzldyy-11" value="&lt;b&gt;S2 : Gestion de l&#39;infrastructure&lt;/b&gt;&lt;div&gt;(Accès, suivi, entretien, nettoyage)&lt;/div&gt;" style="rounded=0;whiteSpace=wrap;html=1;fontSize=12;" parent="1" vertex="1">
                    <mxGeometry x="310" y="485" width="150" height="100" as="geometry"/>
                </mxCell>
                <mxCell id="jFcU2J2NHimVdBmzldyy-12" value="&lt;b&gt;S3 : Gestion Financière&lt;/b&gt;&lt;div&gt;(Achat, budget, recettes)&lt;/div&gt;" style="rounded=0;whiteSpace=wrap;html=1;fontSize=12;" parent="1" vertex="1">
                    <mxGeometry x="571" y="485" width="150" height="100" as="geometry"/>
                </mxCell>
                <mxCell id="jFcU2J2NHimVdBmzldyy-13" value="&lt;b&gt;S4 : Gestion de l&#39;informatique&lt;/b&gt;&lt;div&gt;(matériel, logiciels, réseaux)&lt;/div&gt;" style="rounded=0;whiteSpace=wrap;html=1;fontSize=12;" parent="1" vertex="1">
                    <mxGeometry x="50" y="600" width="150" height="100" as="geometry"/>
                </mxCell>
                <mxCell id="jFcU2J2NHimVdBmzldyy-14" value="&lt;b&gt;S5 : Gestion du matériel et des consommables&lt;/b&gt;" style="rounded=0;whiteSpace=wrap;html=1;fontSize=12;" parent="1" vertex="1">
                    <mxGeometry x="310" y="600" width="150" height="100" as="geometry"/>
                </mxCell>
                <mxCell id="jFcU2J2NHimVdBmzldyy-15" value="&lt;b&gt;S6 : Gestion &quot;Hygiène et sécurité&quot;&lt;br&gt;&lt;/b&gt;" style="rounded=0;whiteSpace=wrap;html=1;fontSize=12;" parent="1" vertex="1">
                    <mxGeometry x="571" y="600" width="150" height="100" as="geometry"/>
                </mxCell>
                <mxCell id="jFcU2J2NHimVdBmzldyy-16" value="&lt;b&gt;M1 : Direction&lt;/b&gt;" style="rounded=0;whiteSpace=wrap;html=1;fontSize=12;" parent="1" vertex="1">
                    <mxGeometry x="49.5" y="109" width="150" height="100" as="geometry"/>
                </mxCell>
                <mxCell id="jFcU2J2NHimVdBmzldyy-17" value="&lt;div&gt;&lt;b&gt;M2 : Stratégie, Politique et Pilotage&lt;/b&gt;&lt;/div&gt;" style="rounded=0;whiteSpace=wrap;html=1;fontSize=12;" parent="1" vertex="1">
                    <mxGeometry x="310" y="109" width="150" height="100" as="geometry"/>
                </mxCell>
                <mxCell id="jFcU2J2NHimVdBmzldyy-18" value="&lt;div&gt;&lt;b&gt;M3 : Management de la qualité&lt;/b&gt;&lt;/div&gt;" style="rounded=0;whiteSpace=wrap;html=1;fontSize=12;" parent="1" vertex="1">
                    <mxGeometry x="570.5" y="109" width="150" height="100" as="geometry"/>
                </mxCell>
                <mxCell id="jFcU2J2NHimVdBmzldyy-19" value="CARTOGRAPHIE DES PROCESSUS&lt;div&gt;&lt;br&gt;&lt;/div&gt;&lt;div style=&quot;text-align: left;&quot;&gt;Date de création : 26/01/2024, L. Barbé&lt;/div&gt;" style="rounded=0;whiteSpace=wrap;html=1;" parent="1" vertex="1">
                    <mxGeometry x="140" width="490" height="60" as="geometry"/>
                </mxCell>
                <mxCell id="jFcU2J2NHimVdBmzldyy-20" value="IRIS" style="rounded=0;whiteSpace=wrap;html=1;" parent="1" vertex="1">
                    <mxGeometry x="-40" width="180" height="60" as="geometry"/>
                </mxCell>
                <mxCell id="jFcU2J2NHimVdBmzldyy-21" value="IRIS_Cartographie_Processus&lt;div&gt;Version n°1&lt;/div&gt;&lt;div&gt;28/01/2025&lt;/div&gt;" style="rounded=0;whiteSpace=wrap;html=1;" parent="1" vertex="1">
                    <mxGeometry x="630" width="230" height="60" as="geometry"/>
                </mxCell>
                <mxCell id="jFcU2J2NHimVdBmzldyy-23" value="" style="html=1;shadow=0;dashed=0;align=center;verticalAlign=middle;shape=mxgraph.arrows2.arrow;dy=0.7;dx=15;direction=north;notch=0;" parent="1" vertex="1">
                    <mxGeometry x="114.5" y="209" width="20" height="30" as="geometry"/>
                </mxCell>
                <mxCell id="jFcU2J2NHimVdBmzldyy-24" value="" style="html=1;shadow=0;dashed=0;align=center;verticalAlign=middle;shape=mxgraph.arrows2.arrow;dy=0.7;dx=15;direction=north;notch=0;" parent="1" vertex="1">
                    <mxGeometry x="635.5" y="209" width="20" height="30" as="geometry"/>
                </mxCell>
                <mxCell id="jFcU2J2NHimVdBmzldyy-25" value="" style="html=1;shadow=0;dashed=0;align=center;verticalAlign=middle;shape=mxgraph.arrows2.arrow;dy=0.7;dx=15;direction=south;notch=0;" parent="1" vertex="1">
                    <mxGeometry x="375" y="209" width="20" height="30" as="geometry"/>
                </mxCell>
                <mxCell id="jFcU2J2NHimVdBmzldyy-26" value="" style="html=1;shadow=0;dashed=0;align=center;verticalAlign=middle;shape=mxgraph.arrows2.arrow;dy=0.7;dx=15;direction=south;notch=0;" parent="1" vertex="1">
                    <mxGeometry x="114.5" y="453" width="20" height="30" as="geometry"/>
                </mxCell>
                <mxCell id="jFcU2J2NHimVdBmzldyy-27" value="" style="html=1;shadow=0;dashed=0;align=center;verticalAlign=middle;shape=mxgraph.arrows2.arrow;dy=0.7;dx=15;direction=south;notch=0;" parent="1" vertex="1">
                    <mxGeometry x="635.5" y="453" width="20" height="30" as="geometry"/>
                </mxCell>
                <mxCell id="jFcU2J2NHimVdBmzldyy-28" value="" style="html=1;shadow=0;dashed=0;align=center;verticalAlign=middle;shape=mxgraph.arrows2.arrow;dy=0.7;dx=15;direction=north;notch=0;" parent="1" vertex="1">
                    <mxGeometry x="375" y="453" width="20" height="30" as="geometry"/>
                </mxCell>
                <mxCell id="jFcU2J2NHimVdBmzldyy-29" value="Écoute des bénéficiaires et des parties intéressées (étudiants, intervenants, professeurs, entreprises…)" style="rounded=0;whiteSpace=wrap;html=1;direction=south;horizontal=0;" parent="1" vertex="1">
                    <mxGeometry x="-40" y="109" width="60" height="591" as="geometry"/>
                </mxCell>
                <mxCell id="jFcU2J2NHimVdBmzldyy-31" value="Satisfaction des bénéficiaires et des parties intéressées (étudiants, intervenants, professeurs, entreprises…)" style="rounded=0;whiteSpace=wrap;html=1;direction=south;horizontal=0;" parent="1" vertex="1">
                    <mxGeometry x="800" y="109" width="60" height="591" as="geometry"/>
                </mxCell>
            </root>
        </mxGraphModel>
    </diagram>
</mxfile>